<svg width="20" height="20" viewBox="0 0 20 20" fill="none" xmlns="http://www.w3.org/2000/svg">
<path id="brain" d="M1.299 15.5947C1.731 16.9267 3.044 17.7767 4.445 17.7767H4.5C4.62853 18.404 4.96969 18.9677 5.46582 19.3726C5.96196 19.7774 6.58265 19.9986 7.223 19.9987C7.68 19.9987 8.107 19.8837 8.485 19.6857C8.64275 19.5992 8.77402 19.4714 8.86473 19.3161C8.95545 19.1607 9.00221 18.9836 9 18.8037V1.02568C9.00202 0.796583 8.92507 0.573777 8.78211 0.394748C8.63914 0.215719 8.43887 0.091392 8.215 0.0426835C7.71331 -0.0547609 7.19349 0.0158841 6.736 0.243683C5.992 0.599683 5.556 1.39468 5.556 2.22168V2.27668C4.99921 2.16304 4.42097 2.22289 3.89925 2.44815C3.37754 2.67342 2.93746 3.05326 2.63837 3.53645C2.33928 4.01964 2.19557 4.58293 2.22661 5.15035C2.25766 5.71776 2.46198 6.26201 2.812 6.70968C2.02808 6.83251 1.31388 7.23146 0.798242 7.83457C0.282607 8.43767 -0.000500432 9.2052 6.6406e-07 9.99868C6.6406e-07 11.1767 0.611001 12.2097 1.533 12.8107C1.103 13.5817 0.962001 14.5567 1.299 15.5947ZM17.188 6.70968C17.538 6.26201 17.7423 5.71776 17.7734 5.15035C17.8044 4.58293 17.6607 4.01964 17.3616 3.53645C17.0625 3.05326 16.6225 2.67342 16.1007 2.44815C15.579 2.22289 15.0008 2.16304 14.444 2.27668V2.22168C14.444 1.39568 14.007 0.599683 13.263 0.243683C12.8059 0.0158164 12.2864 -0.0548368 11.785 0.0426835C11.5612 0.0915638 11.3611 0.215937 11.2181 0.394927C11.0752 0.573918 10.9982 0.79663 11 1.02568V18.8027C11 19.1677 11.192 19.5147 11.516 19.6847C11.894 19.8837 12.32 19.9987 12.777 19.9987C13.4175 19.9985 14.0383 19.7772 14.5344 19.3722C15.0306 18.9671 15.3717 18.4032 15.5 17.7757H15.556C16.956 17.7757 18.27 16.9257 18.702 15.5937C19.039 14.5557 18.898 13.5807 18.468 12.8097C18.9377 12.5062 19.3239 12.09 19.5915 11.599C19.8591 11.108 19.9995 10.5579 20 9.99868C20.0005 9.2052 19.7174 8.43767 19.2018 7.83457C18.6861 7.23146 17.9719 6.83251 17.188 6.70968Z" fill="#FD860F"/>
</svg>
